<?xml version="1.0" standalone="no"?>
<!DOCTYPE svg PUBLIC "-//W3C//DTD SVG 20010904//EN"
 "http://www.w3.org/TR/2001/REC-SVG-20010904/DTD/svg10.dtd">
<svg version="1.0" xmlns="http://www.w3.org/2000/svg"
 width="1080.000000pt" height="1080.000000pt" viewBox="0 0 1080.000000 1080.000000"
 preserveAspectRatio="xMidYMid meet">
<metadata>
Created by potrace 1.11, written by Peter Selinger 2001-2013
</metadata>
<g transform="translate(0.000000,1080.000000) scale(0.100000,-0.100000)"
fill="#000000" stroke="none">
<path d="M3445 9740 c-119 -39 -220 -133 -268 -250 l-22 -55 0 -2740 0 -2740
32 -68 c130 -273 473 -337 683 -127 67 67 107 145 120 237 5 37 10 262 10 498
1 469 10 677 35 800 114 555 542 982 1105 1102 121 26 420 25 540 -1 289 -63
537 -201 737 -410 187 -195 301 -411 366 -691 21 -89 21 -113 27 -1675 5
-1537 6 -1586 24 -1630 46 -107 109 -177 204 -228 232 -124 524 -4 603 247 18
61 19 105 19 1601 0 996 -4 1574 -10 1641 -76 750 -528 1415 -1202 1768 -206
108 -423 182 -668 226 -146 27 -491 32 -661 10 -141 -18 -343 -65 -469 -110
-179 -64 -416 -191 -570 -306 l-80 -59 0 1278 c0 818 -4 1300 -10 1342 -22
140 -114 260 -246 322 -87 41 -208 48 -299 18z"/>
<path d="M5175 8960 c-178 -12 -339 -33 -532 -71 l-163 -32 0 -439 c0 -241 3
-438 8 -438 4 0 36 9 72 20 209 64 490 108 750 117 356 12 676 -32 1043 -143
108 -33 127 -36 210 -32 78 3 102 9 158 36 82 39 159 119 200 207 94 199 8
449 -187 548 -97 49 -427 138 -656 176 -277 47 -646 68 -903 51z"/>
<path d="M7836 7928 c-134 -17 -254 -106 -317 -233 -33 -67 -34 -74 -34 -185
0 -156 15 -185 175 -361 478 -523 726 -1050 827 -1760 14 -99 17 -284 22
-1379 l6 -1265 32 -68 c102 -214 359 -305 572 -201 77 38 155 118 194 201 l32
68 0 1300 c0 1386 1 1353 -51 1655 -133 774 -497 1492 -1044 2057 -144 148
-250 192 -414 171z"/>
<path d="M2528 7709 c-301 -320 -562 -717 -738 -1119 -181 -412 -296 -897
-317 -1335 -5 -88 -6 -689 -3 -1335 l5 -1175 34 -70 c44 -88 108 -152 196
-196 67 -33 74 -34 185 -34 104 0 121 3 172 27 97 45 178 132 224 238 18 43
19 90 25 1320 5 1133 7 1288 23 1389 48 323 135 620 257 880 l49 104 -2 711
-3 710 -107 -115z"/>
<path d="M5278 5425 c-79 -26 -168 -93 -215 -163 -79 -118 -74 55 -71 -2072
l3 -1905 32 -67 c58 -123 175 -212 313 -238 195 -38 410 93 470 287 20 64 20
93 20 1944 0 1873 0 1880 -21 1941 -37 111 -124 208 -227 256 -72 32 -228 41
-304 17z"/>
<path d="M3490 3046 c-150 -33 -267 -141 -311 -287 -19 -62 -20 -89 -17 -405
l3 -339 32 -67 c44 -94 109 -160 202 -206 72 -36 79 -37 180 -37 98 0 111 2
174 32 90 43 169 119 210 202 l32 66 0 371 0 370 -38 76 c-59 120 -161 199
-295 227 -65 14 -101 13 -172 -3z"/>
</g>
</svg>
